<svg id="svg" version="1.1" xmlns="http://www.w3.org/2000/svg" xmlns:xlink="http://www.w3.org/1999/xlink" width="400" height="400" viewBox="0, 0, 400,400"><g id="svgg"><path id="path0" d="M119.200 103.835 C 112.323 105.059,106.564 110.099,104.385 116.800 C 103.691 118.935,103.618 126.685,104.278 128.077 C 104.519 128.585,105.209 130.080,105.812 131.400 C 106.800 133.564,110.159 137.056,139.946 166.900 L 172.984 200.000 139.946 233.100 C 110.159 262.944,106.800 266.436,105.812 268.600 C 105.209 269.920,104.515 271.423,104.269 271.940 C 103.620 273.304,103.677 281.485,104.347 283.200 C 106.290 288.174,108.221 290.791,111.600 293.031 C 116.198 296.079,120.526 297.082,125.275 296.198 C 129.170 295.473,130.007 295.213,131.262 294.339 C 131.846 293.933,132.559 293.600,132.847 293.600 C 133.134 293.600,148.183 278.795,166.287 260.700 C 184.392 242.605,199.497 227.737,199.853 227.661 C 200.275 227.570,212.059 239.069,233.570 260.561 C 251.758 278.732,266.873 293.600,267.158 293.600 C 267.443 293.600,268.154 293.933,268.738 294.339 C 271.791 296.465,279.433 297.126,283.400 295.608 C 289.794 293.160,293.160 289.794,295.608 283.400 C 297.126 279.433,296.465 271.791,294.339 268.738 C 293.933 268.154,293.600 267.443,293.600 267.158 C 293.600 266.873,278.732 251.758,260.561 233.570 C 239.069 212.059,227.570 200.275,227.661 199.853 C 227.737 199.497,242.605 184.392,260.700 166.287 C 278.795 148.183,293.600 133.134,293.600 132.847 C 293.600 132.559,293.933 131.846,294.339 131.262 C 296.496 128.163,297.131 120.470,295.557 116.500 C 293.790 112.044,292.250 109.899,289.084 107.484 C 287.234 106.073,286.182 105.512,283.200 104.347 C 281.485 103.677,273.304 103.620,271.940 104.269 C 271.423 104.515,269.920 105.209,268.600 105.812 C 266.436 106.800,262.944 110.159,233.100 139.946 L 200.000 172.984 166.900 139.946 C 136.977 110.079,133.570 106.804,131.400 105.819 C 130.080 105.220,128.694 104.570,128.321 104.375 C 127.547 103.970,120.714 103.565,119.200 103.835 " stroke="none" fill="#fbfafa" fill-rule="evenodd"></path><path id="path1" d="M180.020 0.299 C 178.161 0.374,176.449 0.593,176.216 0.786 C 175.983 0.980,174.534 1.177,172.996 1.226 C 171.458 1.274,170.005 1.465,169.766 1.651 C 169.527 1.837,168.485 2.021,167.449 2.060 C 166.414 2.099,165.473 2.282,165.360 2.465 C 165.246 2.649,164.299 2.800,163.256 2.800 C 162.213 2.800,161.189 2.970,160.980 3.179 C 160.771 3.387,159.835 3.602,158.900 3.657 C 157.965 3.712,157.200 3.901,157.200 4.078 C 157.200 4.255,156.390 4.400,155.400 4.400 C 154.410 4.400,153.600 4.580,153.600 4.800 C 153.600 5.020,152.779 5.200,151.776 5.200 C 150.663 5.200,150.049 5.356,150.200 5.600 C 150.349 5.842,149.804 6.000,148.824 6.000 C 147.931 6.000,147.200 6.180,147.200 6.400 C 147.200 6.620,146.761 6.800,146.224 6.800 C 145.687 6.800,145.136 6.980,145.000 7.200 C 144.864 7.420,144.133 7.600,143.376 7.600 C 142.619 7.600,142.000 7.780,142.000 8.000 C 142.000 8.220,141.460 8.400,140.800 8.400 C 140.140 8.400,139.600 8.599,139.600 8.843 C 139.600 9.086,139.375 9.200,139.100 9.095 C 138.825 8.991,138.150 9.090,137.600 9.317 C 137.050 9.544,136.330 9.751,136.000 9.779 C 135.670 9.806,134.991 10.055,134.492 10.333 C 133.992 10.610,133.420 10.736,133.219 10.612 C 133.019 10.488,132.758 10.544,132.640 10.736 C 132.335 11.229,125.513 13.789,124.860 13.656 C 124.563 13.596,124.438 13.739,124.583 13.973 C 124.734 14.218,124.527 14.400,124.099 14.400 C 123.423 14.400,120.907 15.415,119.105 16.415 C 118.723 16.627,118.048 16.800,117.605 16.800 C 117.162 16.800,116.800 16.954,116.800 17.143 C 116.800 17.332,115.810 17.913,114.600 18.436 C 113.390 18.958,112.400 19.524,112.400 19.693 C 112.400 19.862,112.040 20.000,111.600 20.000 C 111.160 20.000,110.800 20.191,110.800 20.424 C 110.800 20.657,110.635 20.745,110.432 20.620 C 110.230 20.495,109.793 20.664,109.461 20.996 C 109.129 21.328,108.574 21.600,108.229 21.600 C 107.883 21.600,107.600 21.780,107.600 22.000 C 107.600 22.220,107.240 22.400,106.800 22.400 C 106.360 22.400,106.000 22.580,106.000 22.800 C 106.000 23.020,105.640 23.200,105.200 23.200 C 104.760 23.200,104.399 23.335,104.397 23.500 C 104.395 23.665,103.990 24.002,103.497 24.248 C 99.243 26.374,97.600 27.317,97.600 27.631 C 97.600 27.834,97.240 28.000,96.800 28.000 C 96.360 28.000,96.000 28.136,96.000 28.302 C 96.000 28.469,95.482 28.834,94.848 29.115 C 94.214 29.395,93.179 30.069,92.548 30.612 C 91.917 31.155,91.286 31.599,91.146 31.600 C 90.763 31.600,85.820 34.927,85.667 35.287 C 85.593 35.459,85.178 35.600,84.743 35.600 C 84.308 35.600,84.042 35.745,84.151 35.921 C 84.260 36.098,83.641 36.680,82.775 37.216 C 81.909 37.751,81.200 38.326,81.200 38.494 C 81.200 38.662,80.975 38.801,80.700 38.802 C 80.425 38.803,79.625 39.343,78.922 40.002 C 78.219 40.661,77.454 41.200,77.222 41.200 C 76.990 41.200,76.800 41.380,76.800 41.600 C 76.800 41.820,76.614 42.000,76.387 42.000 C 76.159 42.000,75.369 42.585,74.630 43.300 C 73.891 44.015,72.695 45.050,71.973 45.600 C 71.250 46.150,70.442 46.816,70.177 47.081 C 69.912 47.345,69.584 47.450,69.448 47.314 C 69.311 47.178,69.198 47.322,69.196 47.633 C 69.194 47.945,68.623 48.650,67.926 49.200 C 67.229 49.750,66.421 50.438,66.130 50.729 C 65.838 51.019,65.600 51.151,65.600 51.021 C 65.600 50.891,62.298 54.073,58.262 58.092 C 54.227 62.111,50.978 65.466,51.043 65.548 C 51.109 65.629,50.945 65.912,50.681 66.177 C 50.416 66.442,49.750 67.229,49.200 67.926 C 48.650 68.623,47.945 69.194,47.633 69.196 C 47.322 69.198,47.178 69.311,47.314 69.448 C 47.450 69.584,47.345 69.912,47.081 70.177 C 46.816 70.442,46.150 71.250,45.600 71.973 C 45.050 72.695,44.015 73.891,43.300 74.630 C 42.585 75.369,42.000 76.159,42.000 76.387 C 42.000 76.614,41.820 76.800,41.600 76.800 C 41.380 76.800,41.200 76.990,41.200 77.222 C 41.200 77.454,40.661 78.219,40.002 78.922 C 39.343 79.625,38.803 80.425,38.802 80.700 C 38.801 80.975,38.662 81.200,38.494 81.200 C 38.326 81.200,37.751 81.909,37.216 82.775 C 36.680 83.641,36.098 84.260,35.921 84.151 C 35.745 84.042,35.600 84.308,35.600 84.743 C 35.600 85.178,35.459 85.593,35.287 85.667 C 34.927 85.820,31.600 90.763,31.600 91.146 C 31.599 91.286,31.155 91.917,30.612 92.548 C 30.069 93.179,29.395 94.214,29.115 94.848 C 28.834 95.482,28.469 96.000,28.302 96.000 C 28.136 96.000,28.000 96.360,28.000 96.800 C 28.000 97.240,27.834 97.600,27.631 97.600 C 27.317 97.600,26.374 99.243,24.248 103.497 C 24.002 103.990,23.665 104.395,23.500 104.397 C 23.335 104.399,23.200 104.760,23.200 105.200 C 23.200 105.640,23.020 106.000,22.800 106.000 C 22.580 106.000,22.400 106.360,22.400 106.800 C 22.400 107.240,22.220 107.600,22.000 107.600 C 21.780 107.600,21.600 107.883,21.600 108.229 C 21.600 108.574,21.328 109.129,20.996 109.461 C 20.664 109.793,20.495 110.230,20.620 110.432 C 20.745 110.635,20.657 110.800,20.424 110.800 C 20.191 110.800,20.000 111.160,20.000 111.600 C 20.000 112.040,19.862 112.400,19.693 112.400 C 19.524 112.400,18.958 113.390,18.436 114.600 C 17.913 115.810,17.332 116.800,17.143 116.800 C 16.954 116.800,16.800 117.126,16.800 117.525 C 16.800 118.181,15.773 120.715,14.785 122.495 C 14.573 122.877,14.400 123.562,14.400 124.018 C 14.400 124.504,14.223 124.738,13.973 124.583 C 13.739 124.438,13.596 124.563,13.656 124.860 C 13.789 125.513,11.229 132.335,10.736 132.640 C 10.544 132.758,10.488 133.019,10.612 133.219 C 10.736 133.420,10.610 133.992,10.333 134.492 C 10.055 134.991,9.806 135.670,9.779 136.000 C 9.751 136.330,9.544 137.050,9.317 137.600 C 9.090 138.150,8.991 138.825,9.095 139.100 C 9.200 139.375,9.086 139.600,8.843 139.600 C 8.599 139.600,8.400 140.140,8.400 140.800 C 8.400 141.460,8.220 142.000,8.000 142.000 C 7.780 142.000,7.600 142.619,7.600 143.376 C 7.600 144.133,7.420 144.864,7.200 145.000 C 6.980 145.136,6.800 145.687,6.800 146.224 C 6.800 146.761,6.620 147.200,6.400 147.200 C 6.180 147.200,6.000 147.931,6.000 148.824 C 6.000 149.804,5.842 150.349,5.600 150.200 C 5.356 150.049,5.200 150.663,5.200 151.776 C 5.200 152.779,5.020 153.600,4.800 153.600 C 4.580 153.600,4.400 154.410,4.400 155.400 C 4.400 156.390,4.255 157.200,4.078 157.200 C 3.901 157.200,3.712 157.965,3.657 158.900 C 3.602 159.835,3.387 160.771,3.179 160.980 C 2.970 161.189,2.800 162.213,2.800 163.256 C 2.800 164.299,2.649 165.246,2.465 165.360 C 2.282 165.473,2.099 166.414,2.060 167.449 C 2.021 168.485,1.837 169.527,1.651 169.766 C 1.465 170.005,1.274 171.458,1.226 172.996 C 1.177 174.534,0.936 176.036,0.689 176.334 C 0.030 177.127,-0.213 212.646,0.395 219.200 C 0.651 221.950,0.945 225.280,1.049 226.600 C 1.154 227.920,1.348 229.270,1.480 229.600 C 1.861 230.550,1.980 231.270,2.086 233.266 C 2.140 234.293,2.323 235.047,2.492 234.943 C 2.749 234.784,3.023 238.262,2.837 239.330 C 2.806 239.511,2.965 239.545,3.190 239.406 C 3.435 239.255,3.625 239.686,3.661 240.476 C 3.755 242.524,3.790 242.723,4.105 243.038 C 4.267 243.201,4.400 244.023,4.400 244.867 C 4.400 245.710,4.580 246.400,4.800 246.400 C 5.020 246.400,5.200 247.120,5.200 248.000 C 5.200 248.880,5.380 249.600,5.600 249.600 C 5.820 249.600,6.000 250.219,6.000 250.976 C 6.000 251.733,6.180 252.464,6.400 252.600 C 6.620 252.736,6.800 253.362,6.800 253.990 C 6.800 254.619,6.974 255.193,7.187 255.267 C 7.400 255.340,7.619 255.985,7.672 256.700 C 7.726 257.415,7.912 258.000,8.085 258.000 C 8.258 258.000,8.400 258.540,8.400 259.200 C 8.400 259.860,8.595 260.400,8.833 260.400 C 9.072 260.400,9.189 260.625,9.093 260.900 C 8.998 261.175,9.155 262.075,9.442 262.900 C 9.729 263.725,9.878 264.400,9.773 264.400 C 9.668 264.400,9.847 264.805,10.171 265.300 C 10.496 265.795,10.791 266.380,10.828 266.600 C 10.865 266.820,11.061 267.450,11.264 268.000 C 11.466 268.550,12.092 270.260,12.654 271.800 C 13.644 274.510,14.014 275.425,15.319 278.400 C 15.657 279.170,16.173 280.520,16.465 281.400 C 16.757 282.280,17.088 283.090,17.200 283.200 C 17.666 283.656,20.000 288.557,20.000 289.080 C 20.000 289.392,20.180 289.536,20.400 289.400 C 20.620 289.264,20.800 289.523,20.800 289.976 C 20.800 290.429,20.935 290.801,21.100 290.803 C 21.459 290.807,22.400 292.744,22.400 293.480 C 22.400 293.766,22.580 294.000,22.800 294.000 C 23.020 294.000,23.200 294.360,23.200 294.800 C 23.200 295.240,23.380 295.600,23.600 295.600 C 23.820 295.600,24.000 295.960,24.000 296.400 C 24.000 296.840,24.180 297.200,24.400 297.200 C 24.620 297.200,24.800 297.470,24.800 297.800 C 24.800 298.130,24.936 298.400,25.102 298.400 C 25.269 298.400,25.652 298.985,25.954 299.700 C 26.255 300.415,26.790 301.450,27.141 302.000 C 27.492 302.550,27.785 303.090,27.792 303.200 C 27.805 303.407,28.476 304.374,30.682 307.365 C 31.386 308.321,31.851 309.215,31.715 309.352 C 31.578 309.488,31.677 309.600,31.933 309.600 C 32.190 309.600,32.400 309.825,32.400 310.100 C 32.401 310.375,32.851 311.123,33.400 311.762 C 33.950 312.401,34.400 313.049,34.400 313.201 C 34.400 313.353,34.756 313.888,35.192 314.390 C 35.627 314.892,35.884 315.464,35.762 315.662 C 35.640 315.859,35.689 315.970,35.870 315.910 C 36.052 315.849,36.230 315.960,36.266 316.155 C 36.302 316.351,36.494 316.621,36.692 316.755 C 36.891 316.890,37.657 317.900,38.395 319.000 C 39.133 320.100,40.344 321.685,41.087 322.521 C 41.829 323.358,42.639 324.486,42.885 325.027 C 43.181 325.676,43.559 325.940,43.996 325.801 C 44.684 325.583,46.154 326.551,53.696 332.189 C 56.058 333.955,59.638 336.390,61.650 337.600 C 63.663 338.810,66.410 340.505,67.755 341.366 C 70.305 342.998,87.027 351.600,87.651 351.600 C 87.848 351.600,88.772 351.948,89.704 352.373 C 93.977 354.319,100.661 356.846,105.600 358.381 C 108.570 359.304,111.450 360.204,112.000 360.381 C 115.005 361.349,118.885 362.400,121.000 362.818 C 122.320 363.078,123.940 363.431,124.600 363.600 C 125.260 363.769,126.880 364.122,128.200 364.384 C 129.520 364.646,131.230 365.018,132.000 365.212 C 132.770 365.405,134.930 365.761,136.800 366.003 C 138.670 366.245,141.370 366.603,142.800 366.798 C 158.261 368.913,178.352 369.087,192.200 367.227 C 193.740 367.020,195.990 366.739,197.200 366.602 C 198.410 366.465,200.120 366.196,201.000 366.004 C 201.880 365.811,203.770 365.449,205.200 365.200 C 208.096 364.695,209.374 364.423,214.600 363.203 C 218.332 362.331,220.683 361.728,222.400 361.200 C 222.950 361.031,224.210 360.667,225.200 360.391 C 230.390 358.943,241.697 354.888,245.911 352.964 C 247.072 352.434,248.124 352.000,248.249 352.000 C 248.575 352.000,253.982 349.457,258.200 347.321 C 264.520 344.120,265.452 343.581,278.124 335.800 C 281.983 333.430,295.084 323.603,297.839 321.013 C 298.080 320.786,299.520 319.529,301.039 318.219 C 304.602 315.147,315.147 304.602,318.219 301.039 C 319.529 299.520,320.786 298.080,321.013 297.839 C 323.603 295.084,333.430 281.983,335.800 278.124 C 343.581 265.452,344.120 264.520,347.321 258.200 C 349.457 253.982,352.000 248.575,352.000 248.249 C 352.000 248.124,352.434 247.072,352.964 245.911 C 354.888 241.697,358.943 230.390,360.391 225.200 C 360.667 224.210,361.031 222.950,361.200 222.400 C 361.728 220.683,362.331 218.332,363.203 214.600 C 364.423 209.374,364.695 208.096,365.200 205.200 C 365.449 203.770,365.809 201.880,365.998 201.000 C 366.188 200.120,366.549 197.510,366.801 195.200 C 367.054 192.890,367.340 190.640,367.437 190.200 C 369.110 182.651,368.767 157.198,366.798 142.800 C 366.603 141.370,366.245 138.670,366.003 136.800 C 365.761 134.930,365.405 132.770,365.212 132.000 C 365.018 131.230,364.646 129.520,364.384 128.200 C 364.122 126.880,363.769 125.260,363.600 124.600 C 363.431 123.940,363.078 122.320,362.818 121.000 C 362.398 118.877,361.327 114.925,360.379 112.000 C 360.201 111.450,359.394 108.840,358.586 106.200 C 357.242 101.811,354.263 93.911,352.365 89.704 C 351.944 88.772,351.600 87.860,351.600 87.679 C 351.600 87.066,342.949 70.221,341.368 67.755 C 340.506 66.410,338.810 63.663,337.600 61.650 C 336.390 59.638,333.955 56.058,332.189 53.696 C 326.551 46.154,325.583 44.684,325.801 43.996 C 325.940 43.559,325.676 43.181,325.027 42.885 C 324.486 42.639,323.358 41.829,322.521 41.087 C 321.685 40.344,320.100 39.133,319.000 38.395 C 317.900 37.657,316.890 36.891,316.755 36.692 C 316.621 36.494,316.351 36.329,316.155 36.326 C 315.960 36.323,315.849 36.145,315.910 35.930 C 315.970 35.716,315.859 35.640,315.662 35.762 C 315.464 35.884,314.892 35.627,314.390 35.192 C 313.888 34.756,313.353 34.400,313.201 34.400 C 313.049 34.400,312.401 33.950,311.762 33.400 C 311.123 32.851,310.375 32.401,310.100 32.400 C 309.825 32.400,309.600 32.190,309.600 31.933 C 309.600 31.677,309.488 31.578,309.352 31.715 C 309.215 31.851,308.321 31.386,307.365 30.682 C 304.374 28.476,303.407 27.805,303.200 27.792 C 303.090 27.785,302.550 27.492,302.000 27.141 C 301.450 26.790,300.415 26.255,299.700 25.954 C 298.985 25.652,298.400 25.269,298.400 25.102 C 298.400 24.936,298.130 24.800,297.800 24.800 C 297.470 24.800,297.200 24.620,297.200 24.400 C 297.200 24.180,296.840 24.000,296.400 24.000 C 295.960 24.000,295.600 23.820,295.600 23.600 C 295.600 23.380,295.240 23.200,294.800 23.200 C 294.360 23.200,294.000 23.020,294.000 22.800 C 294.000 22.580,293.766 22.400,293.480 22.400 C 292.744 22.400,290.807 21.459,290.803 21.100 C 290.801 20.935,290.429 20.800,289.976 20.800 C 289.523 20.800,289.264 20.620,289.400 20.400 C 289.536 20.180,289.392 20.000,289.080 20.000 C 288.557 20.000,283.656 17.666,283.200 17.200 C 283.090 17.088,282.280 16.757,281.400 16.465 C 280.520 16.173,279.215 15.679,278.500 15.367 C 275.181 13.920,274.422 13.613,271.800 12.654 C 270.260 12.092,268.550 11.466,268.000 11.264 C 267.450 11.061,266.856 10.889,266.679 10.880 C 266.502 10.871,265.917 10.576,265.379 10.223 C 264.841 9.870,264.400 9.668,264.400 9.773 C 264.400 9.878,263.725 9.729,262.900 9.442 C 262.075 9.155,261.175 8.998,260.900 9.093 C 260.625 9.189,260.400 9.072,260.400 8.833 C 260.400 8.595,259.860 8.400,259.200 8.400 C 258.540 8.400,258.000 8.258,258.000 8.085 C 258.000 7.912,257.415 7.726,256.700 7.672 C 255.985 7.619,255.340 7.400,255.267 7.187 C 255.193 6.974,254.619 6.800,253.990 6.800 C 253.362 6.800,252.736 6.620,252.600 6.400 C 252.464 6.180,251.733 6.000,250.976 6.000 C 250.219 6.000,249.600 5.820,249.600 5.600 C 249.600 5.380,248.880 5.200,248.000 5.200 C 247.120 5.200,246.400 5.020,246.400 4.800 C 246.400 4.580,245.710 4.400,244.867 4.400 C 244.023 4.400,243.201 4.267,243.038 4.105 C 242.723 3.790,242.524 3.755,240.476 3.661 C 239.686 3.625,239.255 3.435,239.406 3.190 C 239.545 2.965,239.511 2.806,239.330 2.837 C 238.262 3.023,234.784 2.749,234.943 2.492 C 235.047 2.323,234.293 2.140,233.266 2.086 C 231.270 1.980,230.550 1.861,229.600 1.480 C 229.270 1.348,227.920 1.153,226.600 1.048 C 225.280 0.942,222.310 0.674,220.000 0.451 C 216.168 0.080,188.092 -0.026,180.020 0.299 M128.365 103.827 C 132.761 105.132,133.346 105.668,166.808 139.060 C 184.742 156.957,199.679 171.600,200.000 171.600 C 200.321 171.600,215.258 156.957,233.192 139.060 C 255.643 116.657,266.392 106.199,267.699 105.489 C 286.473 95.290,305.847 117.569,293.015 134.601 C 292.518 135.261,277.779 150.111,260.263 167.601 C 242.746 185.090,228.411 199.665,228.407 199.990 C 228.403 200.314,243.130 215.344,261.133 233.390 C 296.444 268.784,295.090 267.268,296.571 273.058 C 300.104 286.864,286.864 300.104,273.058 296.571 C 267.268 295.090,268.784 296.444,233.390 261.133 C 215.344 243.130,200.314 228.403,199.990 228.407 C 199.665 228.411,185.090 242.746,167.601 260.263 C 150.111 277.779,135.261 292.518,134.601 293.015 C 117.569 305.847,95.290 286.473,105.489 267.699 C 106.199 266.392,116.657 255.643,139.060 233.192 C 156.957 215.258,171.600 200.321,171.600 200.000 C 171.600 199.679,156.957 184.742,139.060 166.808 C 116.024 143.723,106.209 133.627,105.453 132.237 C 96.968 116.634,111.368 98.779,128.365 103.827 M358.496 321.995 C 357.890 322.966,357.876 323.200,358.424 323.200 C 358.657 323.200,358.735 323.019,358.598 322.797 C 358.461 322.576,358.631 322.286,358.975 322.154 C 359.319 322.022,359.600 321.754,359.600 321.557 C 359.600 320.936,359.011 321.170,358.496 321.995 M356.500 324.610 C 355.442 325.740,355.268 326.765,356.312 325.716 C 357.465 324.556,358.124 323.598,357.749 323.624 C 357.557 323.638,356.995 324.081,356.500 324.610 M353.146 329.216 C 352.566 329.867,352.224 330.400,352.384 330.400 C 352.693 330.400,353.685 329.340,354.163 328.500 C 354.615 327.705,354.281 327.940,353.146 329.216 M349.600 333.133 C 349.600 333.390,349.240 333.960,348.800 334.400 C 348.360 334.840,348.176 335.200,348.391 335.200 C 348.917 335.200,350.175 333.241,349.854 332.921 C 349.714 332.781,349.600 332.877,349.600 333.133 M346.505 336.565 C 346.056 337.081,345.444 337.591,345.145 337.697 C 344.845 337.803,344.729 338.029,344.887 338.198 C 345.044 338.368,345.806 337.951,346.579 337.272 C 347.352 336.593,347.835 335.945,347.653 335.833 C 347.470 335.720,346.953 336.049,346.505 336.565 M343.487 339.597 C 343.180 340.036,342.854 340.332,342.764 340.255 C 342.674 340.179,342.010 340.720,341.289 341.458 C 340.567 342.196,340.113 342.800,340.278 342.800 C 340.443 342.800,340.178 343.080,339.689 343.423 C 339.200 343.765,338.805 344.260,338.812 344.523 C 338.819 344.785,339.010 344.681,339.237 344.292 C 339.464 343.902,339.818 343.688,340.025 343.815 C 340.231 343.943,340.400 343.863,340.400 343.637 C 340.400 343.103,343.103 340.400,343.637 340.400 C 343.863 340.400,343.943 340.231,343.815 340.025 C 343.688 339.818,343.902 339.464,344.292 339.237 C 344.681 339.010,344.785 338.819,344.523 338.812 C 344.260 338.805,343.794 339.159,343.487 339.597 M337.600 345.203 C 337.600 345.424,337.156 345.991,336.614 346.463 C 336.071 346.935,335.720 347.470,335.833 347.653 C 335.945 347.835,336.569 347.379,337.219 346.640 C 338.472 345.212,338.647 344.800,338.000 344.800 C 337.780 344.800,337.600 344.981,337.600 345.203 M334.800 348.321 C 334.800 348.570,334.305 349.043,333.700 349.371 C 333.095 349.699,332.805 349.975,333.056 349.984 C 333.753 350.008,335.440 348.509,335.100 348.168 C 334.935 348.002,334.800 348.071,334.800 348.321 M329.000 353.351 C 328.184 354.143,328.067 354.377,328.633 354.080 C 329.504 353.624,330.628 352.452,330.357 352.282 C 330.271 352.228,329.660 352.709,329.000 353.351 M324.460 356.651 C 323.100 358.100,323.627 358.204,325.203 356.797 C 325.941 356.139,326.287 355.611,325.972 355.624 C 325.657 355.638,324.977 356.100,324.460 356.651 M321.829 358.609 C 321.405 358.929,321.194 359.327,321.359 359.493 C 321.525 359.658,321.838 359.476,322.055 359.088 C 322.272 358.700,322.618 358.488,322.825 358.615 C 323.031 358.743,323.200 358.657,323.200 358.424 C 323.200 357.850,322.752 357.910,321.829 358.609 " stroke="none" fill="#e44c4c" fill-rule="evenodd"></path><path id="path2" d="M174.800 0.800 C 174.800 1.319,175.879 1.319,176.200 0.800 C 176.336 0.580,176.077 0.400,175.624 0.400 C 175.171 0.400,174.800 0.580,174.800 0.800 M223.800 0.800 C 224.893 1.269,225.200 1.269,225.200 0.800 C 225.200 0.580,224.705 0.413,224.100 0.428 C 223.125 0.453,223.091 0.495,223.800 0.800 M131.400 10.984 C 130.740 11.253,129.606 11.702,128.880 11.983 C 128.153 12.263,127.635 12.568,127.728 12.661 C 127.942 12.875,132.074 11.266,132.580 10.771 C 133.027 10.334,132.970 10.345,131.400 10.984 M267.020 10.733 C 267.606 11.246,272.090 12.843,272.315 12.618 C 272.425 12.508,272.174 12.308,271.757 12.173 C 270.990 11.924,270.303 11.663,268.281 10.850 C 266.954 10.316,266.496 10.274,267.020 10.733 M125.549 13.465 C 125.047 14.074,125.085 14.087,126.000 13.611 C 127.341 12.914,127.442 12.800,126.716 12.800 C 126.376 12.800,125.851 13.099,125.549 13.465 M100.400 25.431 L 99.400 26.033 100.400 25.772 C 100.950 25.628,101.571 25.350,101.780 25.155 C 102.391 24.584,101.514 24.759,100.400 25.431 M298.403 25.109 C 298.405 25.269,298.855 25.608,299.403 25.862 C 299.951 26.117,300.400 26.191,300.400 26.027 C 300.400 25.863,299.950 25.523,299.400 25.273 C 298.850 25.022,298.401 24.948,298.403 25.109 M97.200 27.102 C 97.200 27.269,96.705 27.630,96.100 27.906 C 95.495 28.182,94.550 28.781,94.000 29.237 L 93.000 30.067 94.400 29.333 C 95.170 28.930,95.860 28.465,95.933 28.300 C 96.007 28.135,96.412 28.000,96.833 28.000 C 97.255 28.000,97.600 27.730,97.600 27.400 C 97.600 27.070,97.510 26.800,97.400 26.800 C 97.290 26.800,97.200 26.936,97.200 27.102 M304.476 28.468 C 305.851 29.658,309.200 32.073,309.200 31.874 C 309.200 31.581,307.703 30.000,307.425 30.000 C 307.271 30.000,306.302 29.446,305.272 28.768 C 304.083 27.986,303.792 27.876,304.476 28.468 M91.700 30.598 C 90.957 31.442,91.094 31.673,92.000 31.107 C 92.440 30.832,92.800 30.471,92.800 30.304 C 92.800 29.827,92.249 29.975,91.700 30.598 M312.000 33.557 C 312.000 33.754,312.285 34.024,312.633 34.157 C 313.611 34.533,313.708 34.451,313.057 33.800 C 312.377 33.120,312.000 33.033,312.000 33.557 M314.413 35.100 C 314.419 35.265,314.904 35.749,315.489 36.176 L 316.552 36.952 315.776 35.889 C 315.023 34.856,314.387 34.489,314.413 35.100 M78.860 39.442 C 78.562 39.778,78.399 40.132,78.495 40.229 C 78.592 40.326,78.998 40.044,79.398 39.602 C 79.797 39.161,79.961 38.807,79.762 38.815 C 79.563 38.824,79.157 39.105,78.860 39.442 M325.786 44.023 C 325.471 44.533,326.295 45.797,331.445 52.703 C 333.620 55.620,336.390 59.650,337.600 61.658 C 338.810 63.666,340.506 66.410,341.368 67.755 C 342.949 70.221,351.600 87.066,351.600 87.679 C 351.600 87.860,351.944 88.772,352.365 89.704 C 354.263 93.911,357.242 101.811,358.586 106.200 C 359.394 108.840,360.201 111.450,360.379 112.000 C 361.327 114.925,362.398 118.877,362.818 121.000 C 363.078 122.320,363.431 123.940,363.600 124.600 C 363.769 125.260,364.122 126.880,364.384 128.200 C 364.646 129.520,365.018 131.230,365.212 132.000 C 365.405 132.770,365.761 134.930,366.003 136.800 C 366.245 138.670,366.603 141.370,366.798 142.800 C 368.767 157.198,369.110 182.651,367.437 190.200 C 367.340 190.640,367.054 192.890,366.801 195.200 C 366.549 197.510,366.188 200.120,365.998 201.000 C 365.809 201.880,365.449 203.770,365.200 205.200 C 364.695 208.096,364.423 209.374,363.203 214.600 C 362.331 218.332,361.728 220.683,361.200 222.400 C 361.031 222.950,360.667 224.210,360.391 225.200 C 358.943 230.390,354.888 241.697,352.964 245.911 C 352.434 247.072,352.000 248.124,352.000 248.249 C 352.000 248.575,349.457 253.982,347.321 258.200 C 344.120 264.520,343.581 265.452,335.800 278.124 C 333.430 281.983,323.603 295.084,321.013 297.839 C 320.786 298.080,319.529 299.520,318.219 301.039 C 315.147 304.602,304.602 315.147,301.039 318.219 C 299.520 319.529,298.080 320.786,297.839 321.013 C 295.084 323.603,281.983 333.430,278.124 335.800 C 265.452 343.581,264.520 344.120,258.200 347.321 C 253.982 349.457,248.575 352.000,248.249 352.000 C 248.124 352.000,247.072 352.434,245.911 352.964 C 241.697 354.888,230.390 358.943,225.200 360.391 C 224.210 360.667,222.950 361.031,222.400 361.200 C 220.683 361.728,218.332 362.331,214.600 363.203 C 209.374 364.423,208.096 364.695,205.200 365.200 C 203.770 365.449,201.880 365.811,201.000 366.004 C 200.120 366.196,198.410 366.465,197.200 366.602 C 195.990 366.739,193.740 367.020,192.200 367.227 C 178.352 369.087,158.261 368.913,142.800 366.798 C 141.370 366.603,138.670 366.245,136.800 366.003 C 134.930 365.761,132.770 365.405,132.000 365.212 C 131.230 365.018,129.520 364.646,128.200 364.384 C 126.880 364.122,125.260 363.769,124.600 363.600 C 123.940 363.431,122.320 363.078,121.000 362.818 C 118.885 362.400,115.005 361.349,112.000 360.381 C 111.450 360.204,108.570 359.304,105.600 358.381 C 100.661 356.846,93.977 354.319,89.704 352.373 C 88.772 351.948,87.848 351.600,87.651 351.600 C 87.027 351.600,70.305 342.998,67.755 341.366 C 66.410 340.505,63.666 338.810,61.658 337.600 C 59.650 336.390,55.620 333.620,52.703 331.445 C 45.797 326.295,44.533 325.471,44.023 325.786 C 43.300 326.233,43.540 326.719,45.400 328.579 C 46.390 329.569,47.200 330.545,47.200 330.748 C 47.200 330.952,48.505 332.490,50.100 334.167 C 51.695 335.844,54.440 338.748,56.200 340.622 C 60.615 345.320,64.409 349.057,65.600 349.878 C 66.150 350.257,67.230 351.211,68.000 351.997 C 68.770 352.783,70.030 353.855,70.800 354.380 C 71.570 354.905,72.785 355.934,73.499 356.667 C 74.214 357.400,74.952 358.000,75.140 358.000 C 75.328 358.000,76.046 358.540,76.737 359.200 C 77.428 359.860,78.192 360.400,78.436 360.400 C 78.680 360.400,79.383 360.940,80.000 361.600 C 80.617 362.260,81.292 362.800,81.501 362.800 C 81.710 362.800,82.446 363.340,83.137 364.000 C 83.828 364.660,84.625 365.200,84.908 365.200 C 85.191 365.200,85.683 365.560,86.000 366.000 C 86.317 366.440,86.857 366.800,87.200 366.800 C 87.543 366.800,88.083 367.160,88.400 367.600 C 88.717 368.040,89.257 368.400,89.600 368.400 C 89.943 368.400,90.483 368.760,90.800 369.200 C 91.117 369.640,91.529 370.000,91.716 370.000 C 91.903 370.000,92.841 370.540,93.800 371.200 C 94.759 371.860,95.827 372.400,96.172 372.400 C 96.517 372.400,96.800 372.580,96.800 372.800 C 96.800 373.020,97.070 373.200,97.400 373.200 C 97.730 373.200,98.000 373.347,98.000 373.526 C 98.000 373.924,100.601 375.200,101.414 375.200 C 101.736 375.200,102.000 375.380,102.000 375.600 C 102.000 375.820,102.278 376.000,102.617 376.000 C 102.956 376.000,103.620 376.360,104.092 376.800 C 104.564 377.240,105.187 377.600,105.475 377.600 C 105.764 377.600,106.000 377.780,106.000 378.000 C 106.000 378.220,106.360 378.400,106.800 378.400 C 107.240 378.400,107.600 378.580,107.600 378.800 C 107.600 379.020,107.945 379.200,108.367 379.200 C 108.788 379.200,109.193 379.335,109.267 379.500 C 109.340 379.665,110.300 380.225,111.400 380.744 C 112.500 381.263,113.713 381.848,114.095 382.044 C 114.477 382.240,115.062 382.400,115.395 382.400 C 115.728 382.400,116.000 382.580,116.000 382.800 C 116.000 383.020,116.360 383.200,116.800 383.200 C 117.240 383.200,117.600 383.380,117.600 383.600 C 117.600 383.820,117.960 384.000,118.400 384.000 C 118.840 384.000,119.200 384.180,119.200 384.400 C 119.200 384.620,119.560 384.800,120.000 384.800 C 120.440 384.800,120.800 384.980,120.800 385.200 C 120.800 385.420,121.340 385.600,122.000 385.600 C 122.660 385.600,123.200 385.780,123.200 386.000 C 123.200 386.220,123.472 386.400,123.805 386.400 C 124.393 386.400,124.818 386.567,126.695 387.538 C 127.187 387.792,127.952 388.000,128.395 388.000 C 128.838 388.000,129.200 388.180,129.200 388.400 C 129.200 388.620,129.530 388.800,129.933 388.800 C 130.337 388.800,130.792 388.925,130.945 389.078 C 131.098 389.231,131.443 389.390,131.712 389.431 C 131.980 389.473,133.599 389.977,135.308 390.553 C 137.018 391.129,138.852 391.600,139.385 391.600 C 139.917 391.600,140.464 391.780,140.600 392.000 C 140.736 392.220,141.377 392.400,142.024 392.400 C 142.671 392.400,143.200 392.580,143.200 392.800 C 143.200 393.020,143.920 393.200,144.800 393.200 C 145.680 393.200,146.400 393.380,146.400 393.600 C 146.400 393.820,147.019 394.000,147.776 394.000 C 148.533 394.000,149.264 394.180,149.400 394.400 C 149.536 394.620,150.166 394.800,150.800 394.800 C 151.434 394.800,152.064 394.980,152.200 395.200 C 152.336 395.420,153.247 395.600,154.224 395.600 C 155.201 395.600,156.000 395.780,156.000 396.000 C 156.000 396.220,156.799 396.400,157.776 396.400 C 158.753 396.400,159.664 396.580,159.800 396.800 C 159.936 397.020,160.847 397.200,161.824 397.200 C 162.801 397.200,163.600 397.380,163.600 397.600 C 163.600 397.822,164.659 398.000,165.976 398.000 C 167.283 398.000,168.464 398.180,168.600 398.400 C 168.736 398.620,170.061 398.800,171.544 398.800 C 173.167 398.800,174.439 398.999,174.740 399.300 C 175.129 399.689,180.743 399.800,200.087 399.800 C 219.608 399.800,224.969 399.693,225.100 399.300 C 225.211 398.966,226.160 398.800,227.953 398.800 C 229.431 398.800,230.830 398.610,231.062 398.378 C 231.295 398.145,232.438 397.948,233.603 397.939 C 234.996 397.928,235.529 397.801,235.161 397.567 C 234.802 397.340,235.571 397.210,237.300 397.206 C 238.829 397.203,240.000 397.027,240.000 396.800 C 240.000 396.580,240.720 396.400,241.600 396.400 C 242.480 396.400,243.200 396.220,243.200 396.000 C 243.200 395.780,243.704 395.600,244.320 395.600 C 244.936 395.600,245.682 395.375,245.979 395.100 C 246.410 394.700,246.461 394.700,246.235 395.100 C 246.062 395.407,246.194 395.600,246.576 395.600 C 246.919 395.600,247.200 395.420,247.200 395.200 C 247.200 394.980,247.905 394.800,248.767 394.800 C 249.628 394.800,250.397 394.609,250.475 394.376 C 250.552 394.143,251.197 393.935,251.908 393.915 C 252.619 393.895,253.200 393.726,253.200 393.539 C 253.200 393.353,253.875 393.197,254.700 393.194 C 255.816 393.189,256.046 393.088,255.600 392.800 C 255.075 392.461,257.154 392.140,258.500 392.353 C 258.665 392.379,258.800 392.241,258.800 392.047 C 258.800 391.635,260.340 391.078,261.168 391.190 C 262.065 391.311,265.964 389.979,266.613 389.330 C 266.936 389.007,267.200 388.932,267.200 389.163 C 267.200 389.451,267.545 389.444,268.300 389.142 C 268.905 388.899,269.850 388.522,270.400 388.304 C 270.950 388.085,271.713 387.748,272.095 387.553 C 272.477 387.359,273.017 387.196,273.295 387.191 C 273.573 387.186,274.250 386.830,274.800 386.400 C 275.350 385.970,276.284 385.614,276.876 385.609 C 277.468 385.604,278.064 385.420,278.200 385.200 C 278.336 384.980,278.777 384.800,279.181 384.800 C 279.584 384.800,280.017 384.533,280.142 384.207 C 280.272 383.869,280.635 383.715,280.985 383.850 C 281.323 383.979,281.600 383.886,281.600 383.643 C 281.600 383.399,281.920 383.200,282.312 383.200 C 282.703 383.200,283.283 382.840,283.600 382.400 C 284.176 381.600,285.067 381.244,284.600 382.000 C 284.143 382.740,284.899 382.408,285.653 381.539 C 286.064 381.065,286.400 380.871,286.400 381.108 C 286.400 381.378,286.847 381.316,287.600 380.940 C 288.260 380.611,288.800 380.180,288.800 379.983 C 288.800 379.786,289.047 379.720,289.348 379.836 C 289.650 379.951,290.003 379.769,290.133 379.430 C 290.270 379.074,290.629 378.913,290.985 379.050 C 291.429 379.220,291.600 379.029,291.600 378.363 C 291.600 377.645,291.707 377.547,292.080 377.920 C 292.785 378.625,293.200 378.507,293.200 377.600 C 293.200 377.160,293.380 376.800,293.600 376.800 C 293.820 376.800,294.000 376.980,294.000 377.200 C 294.000 377.420,294.180 377.600,294.400 377.600 C 294.620 377.600,294.800 377.240,294.800 376.800 C 294.800 375.914,295.417 375.717,295.740 376.500 C 295.865 376.803,296.054 376.645,296.220 376.100 C 296.377 375.582,296.813 375.200,297.247 375.200 C 297.661 375.200,298.000 375.012,298.000 374.782 C 298.000 374.553,298.225 374.410,298.500 374.465 C 299.311 374.628,301.200 374.018,301.200 373.592 C 301.200 373.377,301.560 373.200,302.000 373.200 C 302.440 373.200,302.800 373.009,302.800 372.776 C 302.800 372.543,302.592 372.481,302.338 372.638 C 302.067 372.806,301.984 372.749,302.139 372.499 C 302.283 372.266,302.722 372.159,303.116 372.262 C 303.524 372.369,304.284 372.029,304.890 371.466 C 305.474 370.926,306.047 370.581,306.166 370.699 C 306.284 370.818,306.490 370.630,306.624 370.283 C 306.757 369.935,307.121 369.748,307.433 369.868 C 307.812 370.013,308.000 369.806,308.000 369.243 C 308.000 368.611,308.250 368.400,308.997 368.400 C 309.586 368.400,310.469 367.902,311.157 367.182 C 311.958 366.344,312.386 366.125,312.529 366.482 C 312.643 366.767,312.751 366.595,312.768 366.100 C 312.787 365.565,313.053 365.200,313.424 365.200 C 313.767 365.200,313.936 365.020,313.800 364.800 C 313.664 364.580,313.743 364.400,313.976 364.400 C 314.209 364.400,314.400 364.580,314.400 364.800 C 314.400 365.020,314.599 365.200,314.843 365.200 C 315.086 365.200,315.184 364.936,315.060 364.613 C 314.936 364.290,315.035 363.902,315.279 363.751 C 315.548 363.585,315.611 363.659,315.438 363.938 C 315.281 364.192,315.343 364.400,315.576 364.400 C 315.809 364.400,316.000 364.136,316.000 363.813 C 316.000 363.471,316.236 363.316,316.564 363.441 C 316.909 363.574,317.236 363.316,317.408 362.776 C 317.631 362.071,317.766 362.005,318.078 362.447 C 318.367 362.856,318.418 362.765,318.272 362.100 C 318.106 361.344,318.245 361.199,319.137 361.194 C 319.970 361.189,320.070 361.104,319.600 360.800 C 318.985 360.403,319.758 360.190,321.135 360.378 C 321.482 360.426,321.589 360.194,321.438 359.720 C 321.174 358.888,322.724 357.630,323.155 358.327 C 323.305 358.569,323.758 358.440,324.303 357.998 C 324.897 357.517,325.035 357.212,324.706 357.102 C 324.347 356.982,324.405 356.738,324.914 356.229 C 325.303 355.840,325.886 355.624,326.210 355.749 C 326.558 355.882,326.800 355.744,326.800 355.411 C 326.800 355.101,326.978 354.737,327.195 354.603 C 327.423 354.462,327.489 354.624,327.351 354.984 C 327.174 355.444,327.287 355.542,327.778 355.353 C 328.146 355.212,328.352 354.853,328.238 354.554 C 328.007 353.953,329.329 353.062,329.781 353.514 C 329.938 353.671,330.030 353.620,329.986 353.400 C 329.771 352.332,329.999 351.780,330.400 352.400 C 330.730 352.911,330.789 352.894,330.794 352.287 C 330.797 351.896,331.115 351.474,331.500 351.351 C 332.817 350.930,334.000 350.265,334.000 349.945 C 334.000 349.769,333.685 349.723,333.300 349.843 C 332.638 350.049,332.638 350.036,333.303 349.609 C 333.690 349.360,334.189 349.270,334.413 349.408 C 334.637 349.546,334.794 349.511,334.763 349.330 C 334.582 348.289,334.812 347.800,335.200 348.400 C 335.470 348.818,335.605 348.848,335.644 348.500 C 335.675 348.225,335.723 347.830,335.750 347.623 C 335.778 347.415,336.187 346.886,336.659 346.445 C 337.132 346.005,337.613 345.410,337.729 345.122 C 337.894 344.711,338.029 344.728,338.363 345.200 C 338.716 345.699,338.789 345.652,338.794 344.923 C 338.797 344.440,339.159 343.794,339.597 343.487 C 340.036 343.180,340.276 342.809,340.131 342.664 C 339.986 342.519,340.062 342.400,340.300 342.400 C 340.538 342.400,340.809 342.535,340.901 342.700 C 340.993 342.865,341.009 342.762,340.936 342.470 C 340.763 341.785,341.785 340.763,342.470 340.936 C 342.762 341.009,342.865 340.993,342.700 340.901 C 342.535 340.809,342.400 340.538,342.400 340.300 C 342.400 340.062,342.519 339.986,342.664 340.131 C 342.809 340.276,343.180 340.036,343.487 339.597 C 343.794 339.159,344.440 338.797,344.923 338.794 C 345.652 338.789,345.699 338.716,345.200 338.363 C 344.728 338.029,344.711 337.894,345.122 337.729 C 345.410 337.613,346.005 337.132,346.445 336.659 C 346.886 336.187,347.415 335.778,347.623 335.750 C 347.830 335.723,348.225 335.675,348.500 335.644 C 348.848 335.605,348.818 335.470,348.400 335.200 C 347.800 334.812,348.289 334.582,349.330 334.763 C 349.511 334.794,349.546 334.637,349.408 334.413 C 349.270 334.189,349.360 333.690,349.609 333.303 C 350.036 332.638,350.049 332.638,349.843 333.300 C 349.723 333.685,349.769 334.000,349.945 334.000 C 350.265 334.000,350.930 332.817,351.351 331.500 C 351.474 331.115,351.896 330.797,352.287 330.794 C 352.894 330.789,352.911 330.730,352.400 330.400 C 351.780 329.999,352.332 329.771,353.400 329.986 C 353.620 330.030,353.671 329.938,353.514 329.781 C 353.062 329.329,353.953 328.007,354.554 328.238 C 354.853 328.352,355.212 328.146,355.353 327.778 C 355.542 327.287,355.444 327.174,354.984 327.351 C 354.624 327.489,354.462 327.423,354.603 327.195 C 354.737 326.978,355.101 326.800,355.411 326.800 C 355.744 326.800,355.882 326.558,355.749 326.210 C 355.624 325.886,355.840 325.303,356.229 324.914 C 356.738 324.405,356.982 324.347,357.102 324.706 C 357.212 325.035,357.517 324.897,357.998 324.303 C 358.440 323.758,358.569 323.305,358.327 323.155 C 357.630 322.724,358.888 321.174,359.720 321.438 C 360.194 321.589,360.426 321.482,360.378 321.135 C 360.190 319.758,360.403 318.985,360.800 319.600 C 361.104 320.070,361.189 319.970,361.194 319.137 C 361.199 318.245,361.344 318.106,362.100 318.272 C 362.765 318.418,362.856 318.367,362.447 318.078 C 362.005 317.766,362.071 317.631,362.776 317.408 C 363.316 317.236,363.574 316.909,363.441 316.564 C 363.316 316.236,363.471 316.000,363.813 316.000 C 364.136 316.000,364.400 315.809,364.400 315.576 C 364.400 315.343,364.192 315.281,363.938 315.438 C 363.659 315.611,363.585 315.548,363.751 315.279 C 363.902 315.035,364.290 314.936,364.613 315.060 C 364.936 315.184,365.200 315.086,365.200 314.843 C 365.200 314.599,365.020 314.400,364.800 314.400 C 364.580 314.400,364.400 314.209,364.400 313.976 C 364.400 313.743,364.580 313.664,364.800 313.800 C 365.020 313.936,365.200 313.767,365.200 313.424 C 365.200 313.053,365.565 312.787,366.100 312.768 C 366.595 312.751,366.767 312.643,366.482 312.529 C 366.125 312.386,366.344 311.958,367.182 311.157 C 367.902 310.469,368.400 309.586,368.400 308.997 C 368.400 308.250,368.611 308.000,369.243 308.000 C 369.806 308.000,370.013 307.812,369.868 307.433 C 369.748 307.121,369.935 306.757,370.283 306.624 C 370.630 306.490,370.818 306.284,370.699 306.166 C 370.581 306.047,370.926 305.474,371.466 304.890 C 372.029 304.284,372.369 303.524,372.262 303.116 C 372.159 302.722,372.266 302.283,372.499 302.139 C 372.749 301.984,372.806 302.067,372.638 302.338 C 372.481 302.592,372.543 302.800,372.776 302.800 C 373.009 302.800,373.200 302.440,373.200 302.000 C 373.200 301.560,373.362 301.200,373.561 301.200 C 373.978 301.200,374.835 298.968,374.533 298.666 C 374.422 298.555,374.900 297.870,375.595 297.142 C 376.290 296.415,376.666 295.755,376.429 295.676 C 375.693 295.431,375.960 294.800,376.800 294.800 C 377.240 294.800,377.600 294.620,377.600 294.400 C 377.600 294.180,377.420 294.000,377.200 294.000 C 376.980 294.000,376.800 293.809,376.800 293.576 C 376.800 293.343,376.944 293.242,377.119 293.350 C 377.295 293.458,377.700 293.365,378.019 293.143 C 378.461 292.836,378.480 292.690,378.100 292.536 C 377.566 292.320,377.397 291.568,377.900 291.647 C 378.784 291.787,379.200 291.516,379.200 290.800 C 379.200 290.360,379.399 290.000,379.643 290.000 C 379.886 290.000,379.982 289.730,379.855 289.400 C 379.729 289.070,379.786 288.800,379.983 288.800 C 380.180 288.800,380.611 288.260,380.940 287.600 C 381.316 286.847,381.378 286.400,381.108 286.400 C 380.871 286.400,381.065 286.064,381.539 285.653 C 382.408 284.899,382.740 284.143,382.000 284.600 C 381.244 285.067,381.600 284.176,382.400 283.600 C 382.840 283.283,383.200 282.703,383.200 282.312 C 383.200 281.920,383.399 281.600,383.643 281.600 C 383.886 281.600,383.979 281.323,383.850 280.985 C 383.715 280.635,383.869 280.272,384.207 280.142 C 384.533 280.017,384.800 279.584,384.800 279.181 C 384.800 278.777,384.980 278.336,385.200 278.200 C 385.420 278.064,385.604 277.468,385.609 276.876 C 385.614 276.284,385.970 275.350,386.400 274.800 C 386.830 274.250,387.186 273.573,387.191 273.295 C 387.196 273.017,387.359 272.477,387.553 272.095 C 387.748 271.713,388.085 270.950,388.304 270.400 C 388.522 269.850,388.899 268.905,389.142 268.300 C 389.444 267.545,389.451 267.200,389.163 267.200 C 388.932 267.200,389.007 266.936,389.330 266.613 C 389.979 265.964,391.311 262.065,391.190 261.168 C 391.078 260.340,391.635 258.800,392.047 258.800 C 392.241 258.800,392.379 258.665,392.353 258.500 C 392.140 257.154,392.461 255.075,392.800 255.600 C 393.088 256.046,393.189 255.816,393.194 254.700 C 393.197 253.875,393.353 253.200,393.539 253.200 C 393.726 253.200,393.895 252.619,393.915 251.908 C 393.935 251.197,394.143 250.552,394.376 250.475 C 394.609 250.397,394.800 249.628,394.800 248.767 C 394.800 247.905,394.980 247.200,395.200 247.200 C 395.420 247.200,395.600 246.919,395.600 246.576 C 395.600 246.194,395.407 246.062,395.100 246.235 C 394.700 246.461,394.700 246.410,395.100 245.979 C 395.375 245.682,395.600 244.936,395.600 244.320 C 395.600 243.704,395.780 243.200,396.000 243.200 C 396.220 243.200,396.400 242.480,396.400 241.600 C 396.400 240.720,396.580 240.000,396.800 240.000 C 397.027 240.000,397.203 238.829,397.206 237.300 C 397.210 235.571,397.340 234.802,397.567 235.161 C 397.801 235.530,397.928 235.007,397.938 233.629 C 397.947 232.478,398.121 231.326,398.325 231.068 C 398.529 230.811,398.726 229.437,398.763 228.015 C 398.802 226.487,399.028 225.306,399.315 225.129 C 400.031 224.686,400.017 175.457,399.300 174.740 C 398.999 174.439,398.800 173.167,398.800 171.544 C 398.800 170.061,398.620 168.736,398.400 168.600 C 398.180 168.464,398.000 167.283,398.000 165.976 C 398.000 164.659,397.822 163.600,397.600 163.600 C 397.380 163.600,397.200 162.801,397.200 161.824 C 397.200 160.847,397.020 159.936,396.800 159.800 C 396.580 159.664,396.400 158.753,396.400 157.776 C 396.400 156.799,396.220 156.000,396.000 156.000 C 395.780 156.000,395.600 155.201,395.600 154.224 C 395.600 153.247,395.420 152.336,395.200 152.200 C 394.980 152.064,394.800 151.434,394.800 150.800 C 394.800 150.166,394.620 149.536,394.400 149.400 C 394.180 149.264,394.000 148.533,394.000 147.776 C 394.000 147.019,393.820 146.400,393.600 146.400 C 393.380 146.400,393.200 145.680,393.200 144.800 C 393.200 143.920,393.020 143.200,392.800 143.200 C 392.580 143.200,392.400 142.761,392.400 142.224 C 392.400 141.687,392.220 141.136,392.000 141.000 C 391.780 140.864,391.600 140.236,391.600 139.604 C 391.600 138.482,389.879 132.485,389.161 131.105 C 388.963 130.723,388.800 130.138,388.800 129.805 C 388.800 129.472,388.620 129.200,388.400 129.200 C 388.180 129.200,388.000 128.874,388.000 128.475 C 388.000 128.076,387.640 127.005,387.200 126.094 C 386.760 125.184,386.400 124.160,386.400 123.819 C 386.400 123.479,386.220 123.200,386.000 123.200 C 385.780 123.200,385.600 122.660,385.600 122.000 C 385.600 121.340,385.420 120.800,385.200 120.800 C 384.980 120.800,384.800 120.440,384.800 120.000 C 384.800 119.560,384.620 119.200,384.400 119.200 C 384.180 119.200,384.000 118.840,384.000 118.400 C 384.000 117.960,383.820 117.600,383.600 117.600 C 383.380 117.600,383.200 117.240,383.200 116.800 C 383.200 116.360,383.020 116.000,382.800 116.000 C 382.580 116.000,382.400 115.728,382.400 115.395 C 382.400 115.062,382.240 114.477,382.044 114.095 C 381.848 113.713,381.263 112.500,380.744 111.400 C 380.225 110.300,379.665 109.340,379.500 109.267 C 379.335 109.193,379.200 108.788,379.200 108.367 C 379.200 107.945,379.020 107.600,378.800 107.600 C 378.580 107.600,378.400 107.240,378.400 106.800 C 378.400 106.360,378.220 106.000,378.000 106.000 C 377.780 106.000,377.600 105.764,377.600 105.475 C 377.600 105.187,377.240 104.564,376.800 104.092 C 376.360 103.620,376.000 102.956,376.000 102.617 C 376.000 102.278,375.820 102.000,375.600 102.000 C 375.380 102.000,375.200 101.721,375.200 101.380 C 375.200 100.753,374.099 98.368,373.639 98.000 C 373.502 97.890,372.958 96.945,372.432 95.900 C 371.905 94.855,371.366 94.000,371.235 94.000 C 371.103 94.000,370.740 93.415,370.428 92.700 C 370.116 91.985,369.532 91.109,369.130 90.753 C 368.729 90.397,368.400 89.852,368.400 89.541 C 368.400 89.231,368.040 88.717,367.600 88.400 C 367.160 88.083,366.800 87.543,366.800 87.200 C 366.800 86.857,366.440 86.317,366.000 86.000 C 365.560 85.683,365.200 85.238,365.199 85.012 C 365.199 84.785,364.659 83.970,364.000 83.200 C 363.341 82.430,362.801 81.647,362.801 81.460 C 362.800 81.274,362.260 80.617,361.600 80.000 C 360.940 79.383,360.400 78.680,360.400 78.436 C 360.400 78.192,359.860 77.428,359.200 76.737 C 358.540 76.046,358.000 75.328,358.000 75.140 C 358.000 74.952,357.400 74.214,356.667 73.499 C 355.934 72.785,354.905 71.570,354.380 70.800 C 353.855 70.030,352.783 68.770,351.997 68.000 C 351.211 67.230,350.257 66.150,349.878 65.600 C 349.057 64.409,345.320 60.615,340.622 56.200 C 338.748 54.440,335.844 51.695,334.167 50.100 C 332.490 48.505,330.952 47.200,330.748 47.200 C 330.545 47.200,329.569 46.390,328.579 45.400 C 326.719 43.540,326.233 43.300,325.786 44.023 M72.696 44.434 C 71.793 44.960,69.947 46.800,70.322 46.800 C 70.480 46.800,71.057 46.384,71.606 45.875 C 72.155 45.366,72.963 44.741,73.402 44.487 C 73.841 44.233,74.020 44.024,73.800 44.024 C 73.580 44.024,73.083 44.209,72.696 44.434 M66.280 49.764 C 65.664 50.294,65.333 50.835,65.546 50.966 C 65.758 51.098,65.992 51.066,66.066 50.895 C 66.140 50.725,66.719 50.184,67.354 49.693 C 67.989 49.202,68.259 48.800,67.954 48.800 C 67.649 48.801,66.896 49.235,66.280 49.764 M49.699 66.334 C 49.211 66.920,48.808 67.649,48.805 67.954 C 48.802 68.259,49.199 67.989,49.686 67.354 C 50.174 66.719,50.733 66.088,50.929 65.950 C 51.130 65.809,51.133 65.606,50.936 65.484 C 50.745 65.366,50.188 65.748,49.699 66.334 M45.714 71.043 C 44.593 72.254,43.866 73.599,44.168 73.901 C 44.295 74.029,44.400 73.948,44.400 73.721 C 44.400 73.494,44.937 72.699,45.594 71.954 C 47.244 70.082,47.351 69.273,45.714 71.043 M39.260 79.042 C 38.962 79.378,38.799 79.732,38.895 79.829 C 38.992 79.926,39.398 79.644,39.798 79.202 C 40.197 78.761,40.361 78.407,40.162 78.415 C 39.963 78.424,39.557 78.705,39.260 79.042 M30.500 91.798 C 29.931 92.445,29.861 92.800,30.304 92.800 C 30.471 92.800,30.832 92.440,31.107 92.000 C 31.678 91.087,31.251 90.945,30.500 91.798 M28.653 94.791 C 28.074 95.667,27.600 96.552,27.600 96.758 C 27.600 96.964,27.375 97.224,27.100 97.335 C 26.801 97.456,26.882 97.550,27.300 97.568 C 27.734 97.588,28.000 97.309,28.000 96.833 C 28.000 96.412,28.135 96.007,28.300 95.933 C 28.645 95.780,30.132 93.200,29.876 93.200 C 29.783 93.200,29.232 93.916,28.653 94.791 M25.250 100.650 C 24.986 101.229,24.862 101.795,24.974 101.907 C 25.086 102.019,25.368 101.611,25.600 101.000 C 26.149 99.557,25.873 99.282,25.250 100.650 M13.211 125.787 C 12.943 126.109,12.793 126.580,12.877 126.832 C 12.961 127.084,13.245 126.820,13.507 126.245 C 14.040 125.074,13.937 124.912,13.211 125.787 M11.986 128.880 C 10.644 132.380,10.484 132.875,10.801 132.550 C 11.275 132.064,12.868 127.934,12.661 127.728 C 12.568 127.635,12.265 128.153,11.986 128.880 M0.400 175.624 C 0.400 176.077,0.580 176.336,0.800 176.200 C 1.319 175.879,1.319 174.800,0.800 174.800 C 0.580 174.800,0.400 175.171,0.400 175.624 M0.428 224.100 C 0.413 224.705,0.580 225.200,0.800 225.200 C 1.269 225.200,1.269 224.893,0.800 223.800 C 0.495 223.091,0.453 223.125,0.428 224.100 M10.400 266.901 C 10.400 267.045,10.602 267.666,10.850 268.281 C 11.663 270.303,11.924 270.990,12.173 271.757 C 12.308 272.174,12.508 272.425,12.618 272.315 C 12.843 272.090,11.246 267.606,10.733 267.020 C 10.550 266.811,10.400 266.758,10.400 266.901 M25.273 299.400 C 25.523 299.950,25.863 300.400,26.027 300.400 C 26.191 300.400,26.117 299.951,25.862 299.403 C 25.608 298.855,25.269 298.405,25.109 298.403 C 24.948 298.401,25.022 298.850,25.273 299.400 M28.768 305.272 C 29.446 306.302,30.000 307.271,30.000 307.425 C 30.000 307.703,31.581 309.200,31.874 309.200 C 32.073 309.200,29.658 305.851,28.468 304.476 C 27.876 303.792,27.986 304.083,28.768 305.272 M33.200 312.229 C 33.200 312.354,33.470 312.727,33.800 313.057 C 34.451 313.708,34.533 313.611,34.157 312.633 C 33.929 312.038,33.200 311.730,33.200 312.229 M34.813 314.700 C 34.819 314.865,35.304 315.349,35.889 315.776 L 36.952 316.552 36.176 315.489 C 35.423 314.456,34.787 314.089,34.813 314.700 " stroke="none" fill="#d4443c" fill-rule="evenodd"></path><path id="path3" d="M119.279 103.540 C 118.772 103.683,120.278 103.802,122.624 103.805 C 124.971 103.808,126.465 103.691,125.945 103.545 C 124.733 103.205,120.477 103.201,119.279 103.540 M274.055 103.545 C 273.535 103.691,275.029 103.808,277.376 103.805 C 279.722 103.802,281.228 103.683,280.721 103.540 C 279.523 103.201,275.267 103.205,274.055 103.545 M167.500 140.400 L 200.000 172.999 232.500 140.400 L 265.000 107.801 232.799 139.900 C 215.089 157.555,200.329 172.000,200.000 172.000 C 199.671 172.000,184.911 157.555,167.201 139.900 L 135.000 107.801 167.500 140.400 M296.087 118.600 C 296.091 119.040,296.232 119.940,296.400 120.600 C 296.674 121.678,296.706 121.698,296.713 120.800 C 296.717 120.250,296.576 119.350,296.400 118.800 C 296.149 118.016,296.081 117.973,296.087 118.600 M103.450 119.650 C 103.139 121.205,103.191 124.685,103.545 125.945 C 103.691 126.465,103.808 124.980,103.805 122.646 C 103.799 117.910,103.799 117.905,103.450 119.650 M296.254 124.754 C 296.100 125.718,296.058 126.591,296.161 126.694 C 296.430 126.963,296.915 124.145,296.707 123.522 C 296.612 123.236,296.408 123.790,296.254 124.754 M259.900 167.003 C 242.135 184.824,227.600 199.675,227.600 200.004 C 227.600 200.333,242.135 215.091,259.900 232.801 L 292.200 265.000 260.100 232.799 C 242.445 215.089,228.000 200.329,228.000 200.000 C 228.000 199.671,242.527 184.874,260.283 167.117 C 278.038 149.361,292.483 134.780,292.383 134.716 C 292.282 134.652,277.665 149.181,259.900 167.003 M139.900 167.201 C 157.555 184.911,172.000 199.671,172.000 200.000 C 172.000 200.329,157.555 215.089,139.900 232.799 L 107.801 265.000 140.400 232.500 L 172.999 200.000 140.400 167.500 L 107.801 135.000 139.900 167.201 M166.995 260.001 C 149.172 277.820,134.682 292.400,134.796 292.400 C 134.909 292.400,149.491 277.910,167.200 260.200 C 184.909 242.490,199.668 228.000,199.998 228.000 C 200.328 228.000,215.089 242.445,232.799 260.100 L 265.000 292.200 232.801 259.900 C 215.091 242.135,200.331 227.600,200.001 227.601 C 199.670 227.601,184.818 242.181,166.995 260.001 M103.450 274.450 C 103.141 275.996,103.191 279.485,103.540 280.721 C 103.683 281.228,103.802 279.743,103.805 277.421 C 103.810 272.735,103.804 272.681,103.450 274.450 M296.075 273.800 C 296.086 274.240,296.232 275.140,296.400 275.800 L 296.705 277.000 296.725 275.800 C 296.735 275.140,296.589 274.240,296.400 273.800 L 296.056 273.000 296.075 273.800 M296.240 280.040 C 296.093 280.957,296.052 281.785,296.147 281.880 C 296.242 281.976,296.446 281.310,296.600 280.400 C 296.754 279.490,296.796 278.662,296.693 278.560 C 296.590 278.457,296.387 279.123,296.240 280.040 M118.800 296.400 C 119.350 296.576,120.250 296.717,120.800 296.713 C 121.698 296.706,121.678 296.674,120.600 296.400 C 118.908 295.969,117.456 295.969,118.800 296.400 M124.200 296.400 L 123.000 296.705 124.200 296.725 C 124.860 296.735,125.760 296.589,126.200 296.400 L 127.000 296.056 126.200 296.075 C 125.760 296.086,124.860 296.232,124.200 296.400 M273.800 296.400 C 274.240 296.589,275.140 296.735,275.800 296.725 L 277.000 296.705 275.800 296.400 C 275.140 296.232,274.240 296.086,273.800 296.075 L 273.000 296.056 273.800 296.400 M279.400 296.400 C 278.322 296.674,278.302 296.706,279.200 296.713 C 279.750 296.717,280.650 296.576,281.200 296.400 C 282.544 295.969,281.092 295.969,279.400 296.400 " stroke="none" fill="#f4bcbc" fill-rule="evenodd"></path><path id="path4" d="M121.500 103.082 C 121.995 103.178,122.805 103.178,123.300 103.082 C 123.795 102.987,123.390 102.909,122.400 102.909 C 121.410 102.909,121.005 102.987,121.500 103.082 M276.700 103.082 C 277.195 103.178,278.005 103.178,278.500 103.082 C 278.995 102.987,278.590 102.909,277.600 102.909 C 276.610 102.909,276.205 102.987,276.700 103.082 M117.400 103.600 L 116.600 103.944 117.400 103.932 C 117.840 103.926,118.650 103.776,119.200 103.600 L 120.200 103.280 119.200 103.268 C 118.650 103.262,117.840 103.411,117.400 103.600 M126.000 103.600 C 126.550 103.776,127.360 103.920,127.800 103.920 C 128.433 103.920,128.392 103.854,127.600 103.600 C 127.050 103.424,126.240 103.280,125.800 103.280 C 125.167 103.280,125.208 103.346,126.000 103.600 M272.600 103.600 C 271.581 104.038,272.632 104.038,274.000 103.600 C 274.804 103.343,274.843 103.277,274.200 103.268 C 273.760 103.262,273.040 103.411,272.600 103.600 M280.800 103.600 C 281.350 103.776,282.160 103.926,282.600 103.932 L 283.400 103.944 282.600 103.600 C 282.160 103.411,281.350 103.262,280.800 103.268 L 279.800 103.280 280.800 103.600 M113.277 105.300 C 109.375 107.335,102.882 115.015,104.063 116.197 C 104.151 116.284,104.746 115.241,105.385 113.878 C 106.921 110.607,110.582 106.960,114.000 105.296 C 115.430 104.599,116.413 104.023,116.184 104.015 C 115.956 104.007,114.647 104.585,113.277 105.300 M131.200 105.269 C 133.527 106.437,137.240 110.004,166.610 139.287 C 184.656 157.279,199.681 172.000,200.000 172.000 C 200.319 172.000,215.344 157.276,233.390 139.281 C 262.916 109.837,266.448 106.444,268.676 105.390 C 270.037 104.745,271.083 104.150,271.000 104.066 C 269.796 102.863,266.029 106.350,233.390 138.890 C 215.344 156.881,200.318 171.600,199.998 171.600 C 199.678 171.600,184.742 156.957,166.808 139.060 C 135.105 107.424,132.550 105.037,129.495 104.208 C 129.003 104.074,129.770 104.552,131.200 105.269 M285.400 104.933 C 286.500 105.453,288.257 106.536,289.303 107.339 C 291.566 109.075,292.170 109.269,290.314 107.663 C 288.725 106.288,285.769 104.575,284.400 104.235 C 283.850 104.099,284.300 104.413,285.400 104.933 M292.172 109.918 C 292.596 110.415,293.355 111.491,293.859 112.311 C 294.363 113.130,294.781 113.661,294.788 113.492 C 294.809 112.967,292.950 110.220,292.154 109.601 C 291.442 109.047,291.443 109.064,292.172 109.918 M295.600 115.636 C 295.600 115.729,295.796 116.434,296.035 117.203 C 296.274 117.971,296.608 120.130,296.776 122.000 L 297.082 125.400 297.136 122.800 C 297.185 120.470,296.412 116.278,295.825 115.692 C 295.701 115.568,295.600 115.543,295.600 115.636 M103.378 118.178 C 103.227 118.981,103.194 119.727,103.304 119.837 C 103.414 119.947,103.627 119.381,103.778 118.578 C 103.928 117.775,103.962 117.028,103.852 116.918 C 103.742 116.808,103.528 117.375,103.378 118.178 M102.909 122.400 C 102.909 123.390,102.987 123.795,103.082 123.300 C 103.178 122.805,103.178 121.995,103.082 121.500 C 102.987 121.005,102.909 121.410,102.909 122.400 M103.280 125.800 C 103.280 126.240,103.424 127.050,103.600 127.600 C 103.854 128.392,103.920 128.433,103.920 127.800 C 103.920 127.360,103.776 126.550,103.600 126.000 C 103.346 125.208,103.280 125.167,103.280 125.800 M296.200 126.800 C 296.048 127.491,296.007 128.141,296.109 128.242 C 296.211 128.344,296.409 127.853,296.550 127.150 C 296.883 125.483,296.560 125.160,296.200 126.800 M104.208 129.495 C 105.037 132.550,107.424 135.105,139.060 166.808 C 156.957 184.742,171.600 199.678,171.600 199.998 C 171.600 200.318,156.881 215.344,138.890 233.390 C 106.350 266.029,102.863 269.796,104.066 271.000 C 104.150 271.083,104.745 270.037,105.390 268.676 C 106.444 266.448,109.837 262.916,139.281 233.390 C 157.276 215.344,172.000 200.319,172.000 200.000 C 172.000 199.681,157.279 184.656,139.287 166.610 C 110.004 137.240,106.437 133.527,105.269 131.200 C 104.552 129.770,104.074 129.003,104.208 129.495 M294.633 131.322 C 293.591 133.577,290.539 136.755,260.744 166.608 C 242.735 184.652,228.000 199.678,228.000 199.998 C 228.000 200.318,242.724 215.344,260.719 233.390 C 290.163 262.916,293.556 266.448,294.610 268.676 C 295.255 270.037,295.850 271.084,295.933 271.001 C 297.165 269.768,293.835 266.168,261.133 233.390 C 243.130 215.344,228.403 200.314,228.407 199.990 C 228.411 199.665,242.662 185.180,260.076 167.800 C 277.491 150.420,292.342 135.415,293.079 134.456 C 294.383 132.761,296.196 129.263,295.917 128.983 C 295.840 128.907,295.263 129.959,294.633 131.322 M166.600 260.746 C 136.748 290.545,133.577 293.591,131.322 294.633 C 129.959 295.263,128.907 295.840,128.983 295.917 C 129.263 296.196,132.761 294.383,134.456 293.079 C 135.415 292.342,150.420 277.491,167.800 260.076 C 185.180 242.662,199.665 228.411,199.990 228.407 C 200.314 228.403,215.344 243.130,233.390 261.133 C 266.168 293.835,269.768 297.165,271.001 295.933 C 271.084 295.850,270.037 295.255,268.676 294.610 C 266.448 293.556,262.916 290.163,233.390 260.719 C 215.344 242.724,200.314 228.001,199.990 228.002 C 199.665 228.003,184.640 242.738,166.600 260.746 M296.068 272.200 C 296.062 272.640,296.211 273.360,296.400 273.800 C 296.838 274.819,296.838 273.768,296.400 272.400 C 296.143 271.596,296.077 271.557,296.068 272.200 M103.400 273.200 C 103.248 273.891,103.207 274.541,103.309 274.642 C 103.411 274.744,103.609 274.253,103.750 273.550 C 104.083 271.883,103.760 271.560,103.400 273.200 M296.877 277.142 C 296.788 280.065,295.888 283.868,294.761 286.076 C 294.334 286.914,294.074 287.600,294.184 287.600 C 295.283 287.600,297.284 280.365,297.095 277.071 L 296.954 274.600 296.877 277.142 M102.909 277.600 C 102.909 278.590,102.987 278.995,103.082 278.500 C 103.178 278.005,103.178 277.195,103.082 276.700 C 102.987 276.205,102.909 276.610,102.909 277.600 M103.268 280.800 C 103.262 281.350,103.411 282.160,103.600 282.600 L 103.944 283.400 103.932 282.600 C 103.926 282.160,103.776 281.350,103.600 280.800 L 103.280 279.800 103.268 280.800 M104.235 284.400 C 104.575 285.769,106.288 288.725,107.663 290.314 C 109.269 292.170,109.075 291.566,107.339 289.303 C 106.536 288.257,105.453 286.500,104.933 285.400 C 104.413 284.300,104.099 283.850,104.235 284.400 M292.683 289.400 C 292.069 290.170,291.689 290.800,291.839 290.800 C 292.136 290.800,292.974 289.812,293.621 288.700 C 294.257 287.607,293.903 287.871,292.683 289.400 M109.601 292.154 C 110.220 292.950,112.967 294.809,113.492 294.788 C 113.661 294.781,113.130 294.363,112.311 293.859 C 111.491 293.355,110.415 292.596,109.918 292.172 C 109.064 291.443,109.047 291.442,109.601 292.154 M289.200 292.883 C 288.430 293.546,288.160 293.891,288.600 293.651 C 289.809 292.990,290.963 292.029,290.771 291.843 C 290.677 291.752,289.970 292.220,289.200 292.883 M286.400 294.607 C 284.575 295.663,281.441 296.474,278.000 296.780 C 274.607 297.082,274.605 297.082,277.142 297.141 C 280.578 297.221,287.600 295.240,287.600 294.192 C 287.600 293.928,287.536 293.950,286.400 294.607 M115.692 295.825 C 116.278 296.412,120.470 297.185,122.800 297.136 L 125.400 297.082 122.000 296.776 C 120.130 296.608,117.971 296.274,117.203 296.035 C 115.614 295.541,115.374 295.507,115.692 295.825 M126.200 296.400 C 125.181 296.838,126.232 296.838,127.600 296.400 C 128.404 296.143,128.443 296.077,127.800 296.068 C 127.360 296.062,126.640 296.211,126.200 296.400 M272.400 296.400 C 273.768 296.838,274.819 296.838,273.800 296.400 C 273.360 296.211,272.640 296.062,272.200 296.068 C 271.557 296.077,271.596 296.143,272.400 296.400 " stroke="none" fill="#f4a4a4" fill-rule="evenodd"></path></g></svg>