<?xml version="1.0" standalone="no"?>
<!DOCTYPE svg PUBLIC "-//W3C//DTD SVG 20010904//EN"
 "http://www.w3.org/TR/2001/REC-SVG-20010904/DTD/svg10.dtd">
<svg version="1.0" xmlns="http://www.w3.org/2000/svg"
 width="256.000000pt" height="256.000000pt" viewBox="0 0 256.000000 256.000000"
 preserveAspectRatio="xMidYMid meet">

<g transform="translate(0.000000,256.000000) scale(0.100000,-0.100000)"
fill="#000000" stroke="none">
<path d="M969 2509 c-14 -5 -31 -21 -38 -35 -8 -18 -11 -177 -11 -549 l0 -525
-160 0 -160 0 0 120 0 120 -93 0 c-119 0 -171 -23 -205 -90 -19 -39 -22 -59
-22 -177 l0 -133 -120 0 -120 0 0 -600 0 -600 1080 0 1080 0 0 80 0 80 80 0
80 0 0 440 0 440 45 0 c55 0 90 15 104 47 16 34 16 1312 0 1347 -7 14 -25 30
-42 36 -39 13 -1461 13 -1498 -1z m551 -254 c0 -102 3 -185 7 -185 4 0 31 23
60 52 l53 52 40 -39 40 -39 40 39 40 39 53 -52 c29 -29 56 -52 60 -52 4 0 7
83 7 185 l0 185 260 0 260 0 0 -280 0 -280 -320 0 -320 0 0 -240 0 -240 -400
0 -400 0 0 520 0 520 260 0 260 0 0 -185z m320 93 c0 -91 0 -91 -20 -73 -20
18 -21 18 -60 -20 l-40 -39 -40 39 c-39 38 -40 38 -60 20 -20 -18 -20 -18 -20
73 l0 92 120 0 120 0 0 -92z m600 -868 l0 -320 -40 0 -40 0 0 120 0 120 -240
0 -240 0 0 200 0 200 280 0 280 0 0 -320z m-1925 0 l0 -75 -40 -3 c-49 -3 -86
15 -103 51 -27 55 26 110 103 105 l40 -3 0 -75z m824 -160 l941 0 0 -520 0
-520 -40 0 -40 0 0 480 0 480 -920 0 -920 0 0 50 c0 47 1 50 19 40 13 -7 331
-10 960 -10z m776 -680 l0 -515 -995 0 -995 0 -3 505 c-1 278 0 511 3 518 3
10 208 12 997 10 l993 -3 0 -515z"/>
<path d="M1960 1680 l0 -40 40 0 40 0 0 40 0 40 -40 0 -40 0 0 -40z"/>
<path d="M2120 1680 l0 -40 120 0 120 0 0 40 0 40 -120 0 -120 0 0 -40z"/>
<path d="M1960 1520 l0 -40 200 0 200 0 0 40 0 40 -200 0 -200 0 0 -40z"/>
<path d="M200 640 l0 -440 920 0 920 0 0 440 0 440 -920 0 -920 0 0 -440z
m190 345 c0 -19 -76 -95 -95 -95 -12 0 -15 13 -15 55 l0 55 55 0 c42 0 55 -3
55 -15z m431 -21 c-87 -78 -141 -203 -141 -324 0 -121 54 -246 141 -324 l39
-36 -189 0 -188 0 -18 46 c-23 60 -79 116 -139 139 l-46 18 0 157 0 157 46 18
c60 23 116 79 139 139 l18 46 188 0 189 0 -39 -36z m444 2 c76 -34 139 -97
178 -175 28 -58 32 -75 32 -151 0 -76 -4 -93 -32 -151 -39 -79 -102 -140 -181
-177 -48 -22 -71 -27 -142 -27 -71 0 -94 5 -142 27 -79 37 -142 98 -181 177
-29 59 -32 75 -32 151 0 70 5 95 27 141 85 185 295 267 473 185z m510 -12 c23
-60 79 -116 139 -139 l46 -18 0 -157 0 -157 -46 -18 c-60 -23 -116 -79 -139
-139 l-18 -46 -188 0 -189 0 39 36 c186 167 186 481 0 648 l-39 36 189 0 188
0 18 -46z m185 -9 c0 -68 -14 -71 -70 -15 -56 56 -53 70 15 70 l55 0 0 -55z
m-1610 -595 c56 -56 53 -70 -15 -70 l-55 0 0 55 c0 68 14 71 70 15z m1610 -15
l0 -55 -55 0 c-68 0 -71 14 -15 70 56 56 70 53 70 -15z"/>
<path d="M1080 880 l0 -40 -40 0 -40 0 0 -120 0 -120 80 0 80 0 0 -40 0 -40
-80 0 -80 0 0 -40 0 -40 40 0 40 0 0 -40 0 -40 40 0 40 0 0 40 0 40 40 0 40 0
0 120 0 120 -80 0 -80 0 0 40 0 40 80 0 80 0 0 40 0 40 -40 0 -40 0 0 40 0 40
-40 0 -40 0 0 -40z"/>
</g>
</svg>
